<?xml version="1.0" encoding="utf-8"?>
<!-- Generator: Adobe Illustrator 19.1.0, SVG Export Plug-In . SVG Version: 6.00 Build 0)  -->
<svg version="1.1" id="Capa_1" xmlns="http://www.w3.org/2000/svg" xmlns:xlink="http://www.w3.org/1999/xlink" x="0px" y="0px"
	 viewBox="0 0 300 300" style="enable-background:new 0 0 300 300;" xml:space="preserve">
<style type="text/css">
	.st0{stroke:#000000;stroke-width:2.5322;stroke-miterlimit:10;}
</style>
<g>
	<g>
		<g>
			<path d="M150.7,185.5c-37.9,0-68.8-30.9-68.8-68.8c0-37.9,30.9-68.8,68.8-68.8s68.8,30.9,68.8,68.8
				C219.5,154.6,188.6,185.5,150.7,185.5z M150.7,61C120,61,95,86,95,116.7c0,30.7,25,55.7,55.7,55.7s55.7-25,55.7-55.7
				C206.4,86,181.4,61,150.7,61z"/>
		</g>
		<path d="M165,112.4l23.5-23.5l2.1-12.2L179,79.5l-23.5,23.5c-4.9-1.4-10.9-0.5-14.9,3.5c-5.7,5.7-5.8,14.9-0.1,20.6
			c5.7,5.7,15.1,5.8,20.8,0.1C165.3,123.1,166.4,117.3,165,112.4z"/>
	</g>
	<polygon points="136,217 76,217 76,203 126,203 126,175 136,175 	"/>
	<polygon points="223,217 163,217 163,175 174,175 174,203 223,203 	"/>
	<rect x="76" y="240" width="147" height="12"/>
	<path d="M150.5,160.1c-24.3,0-44-19.7-44-44s19.7-44,44-44s44,19.7,44,44S174.8,160.1,150.5,160.1z M150.5,78.4
		c-20.8,0-37.8,17-37.8,37.8s17,37.8,37.8,37.8s37.8-17,37.8-37.8S171.3,78.4,150.5,78.4z"/>
</g>
</svg>
