<?xml version="1.0" encoding="utf-8"?>
<!-- Generator: Adobe Illustrator 19.1.0, SVG Export Plug-In . SVG Version: 6.00 Build 0)  -->
<svg version="1.1" id="Capa_1" xmlns="http://www.w3.org/2000/svg" xmlns:xlink="http://www.w3.org/1999/xlink" x="0px" y="0px"
	 viewBox="0 0 300 300" style="enable-background:new 0 0 300 300;" xml:space="preserve">
<style type="text/css">
	.st0{stroke:#000000;stroke-width:2.5322;stroke-miterlimit:10;}
</style>
<g>
	<g>
		<path d="M150,243.8c-51.7,0-93.8-42.1-93.8-93.8S98.3,56.2,150,56.2s93.8,42.1,93.8,93.8S201.7,243.8,150,243.8z M150,73.9
			c-42,0-76.1,34.1-76.1,76.1c0,41.9,34.1,76.1,76.1,76.1s76.1-34.1,76.1-76.1C226.1,108,192,73.9,150,73.9z"/>
	</g>
	<g>
		<path d="M150,189.1c-21.8,0-39.5-17.7-39.5-39.5s17.7-39.5,39.5-39.5s39.5,17.7,39.5,39.5S171.8,189.1,150,189.1z M150,129.8
			c-10.9,0-19.8,8.9-19.8,19.8c0,10.9,8.9,19.8,19.8,19.8s19.8-8.9,19.8-19.8C169.8,138.7,160.9,129.8,150,129.8z"/>
	</g>
	<g>
		<path class="st0" d="M204,165.2h14.6v5.6h-26.4l13.7-16.5c1.3-1.6,2.5-3.1,3.4-4.3c0.9-1.2,1.6-2.2,2.1-3c1-1.6,1.5-3,1.5-4.3
			c0-1.8-0.6-3.4-1.9-4.6c-1.3-1.2-2.9-1.9-4.8-1.9c-4,0-6.2,2.4-6.8,7.1h-5.9c1-8.3,5.1-12.4,12.6-12.4c3.6,0,6.6,1.1,9,3.4
			c2.4,2.3,3.7,5.1,3.7,8.5c0,2.1-0.6,4.2-1.7,6.3c-0.6,1.1-1.4,2.3-2.5,3.8c-1.1,1.5-2.5,3.2-4.2,5.2L204,165.2z"/>
	</g>
</g>
</svg>
