<?xml version="1.0" encoding="utf-8"?>
<!-- Generator: Adobe Illustrator 19.1.0, SVG Export Plug-In . SVG Version: 6.00 Build 0)  -->
<svg version="1.1" id="Capa_1" xmlns="http://www.w3.org/2000/svg" xmlns:xlink="http://www.w3.org/1999/xlink" x="0px" y="0px"
	 viewBox="0 0 300 300" style="enable-background:new 0 0 300 300;" xml:space="preserve">
<style type="text/css">
	.st0{stroke:#000000;stroke-width:2.5322;stroke-miterlimit:10;}
</style>
<g>
	<path d="M159.3,56.2c-31.3,0-59.1,15.5-76.2,39.1c3.1,4.6,6.8,10.1,10.5,16.4c13.2-22.6,37.7-37.8,65.7-37.8
		c42,0,76.1,34.1,76.1,76.1c0,41.9-34.1,76.1-76.1,76.1c-20.7,0-39.5-8.3-53.2-21.8c-2.9,4-6.4,7.5-10.3,10.2
		c-0.6,0.4-1.2,0.8-1.8,1.2c-0.3,0.2-0.7,0.4-1,0.6c17,17,40.4,27.5,66.3,27.5c51.7,0,93.8-42.1,93.8-93.8S211.1,56.2,159.3,56.2z"
		/>
	<path d="M177.1,144.1l28.7-28.7l2.6-14.8l-14.1,3.3l-28.7,28.7c-6-1.8-13.3-0.7-18.2,4.2c-7,7-7,18.2-0.1,25.2
		c7,7,18.4,7.1,25.4,0.1C177.5,157.2,178.8,150.1,177.1,144.1z"/>
	<path d="M71.2,112.1c-11.6,17.5-24.6,41.9-24.4,60.8c0.2,17.4,11.3,31.5,24.7,31.5c13.6,0,24.7-14,24.7-31.3
		c0-11.9-6.5-29.7-18.4-50.1C75.7,119.1,73.4,115.4,71.2,112.1z"/>
	<path d="M159.3,90.7c-25.6,0-47.5,16.4-55.8,39.2c1.5,3.1,2.9,6.2,4.3,9.4c4.9-23.9,26.2-41.9,51.5-41.9c29,0,52.6,23.6,52.6,52.6
		s-23.6,52.6-52.6,52.6c-18.2,0-34.3-9.3-43.7-23.4c-0.3,3-0.9,6-1.7,8.8c10.9,13,27.2,21.2,45.4,21.2c32.7,0,59.3-26.6,59.3-59.3
		C218.6,117.3,192,90.7,159.3,90.7z"/>
</g>
</svg>
