<?xml version="1.0" encoding="utf-8"?>
<!-- Generator: Adobe Illustrator 19.1.0, SVG Export Plug-In . SVG Version: 6.00 Build 0)  -->
<svg version="1.1" id="Capa_1" xmlns="http://www.w3.org/2000/svg" xmlns:xlink="http://www.w3.org/1999/xlink" x="0px" y="0px"
	 viewBox="0 0 300 300" style="enable-background:new 0 0 300 300;" xml:space="preserve">
<style type="text/css">
	.st0{stroke:#000000;stroke-width:2.5322;stroke-miterlimit:10;}
</style>
<g>
	<g>
		<path d="M150.8,249.3c-28.5,0-51.7-22.8-51.7-50.8c0-14.7,7-29,17-38.7V51h67v108.6c11,9.7,18.4,24.1,18.4,38.9
			C201.4,226.5,178.5,249.3,150.8,249.3z M127,62v102.7l-2.2,1.6c-9.4,7.7-15.2,19.8-15.2,32.2c0,22.3,18.4,40.4,41.2,40.4
			c21.9,0,39.8-18.1,39.8-40.4c0-12.4-6.1-24.4-16.5-32.1l-2-1.6V62H127z"/>
	</g>
	<path d="M165,170.4V135h-30v35.4c-11,5.3-16.5,15.9-16.5,28.1c0,17.5,14.4,31.7,32,31.7s31.6-14.2,31.6-31.7
		C182.1,186.2,174,175.7,165,170.4z"/>
</g>
</svg>
