<?xml version="1.0" encoding="utf-8"?>
<!-- Generator: Adobe Illustrator 19.1.0, SVG Export Plug-In . SVG Version: 6.00 Build 0)  -->
<svg version="1.1" id="Capa_1" xmlns="http://www.w3.org/2000/svg" xmlns:xlink="http://www.w3.org/1999/xlink" x="0px" y="0px"
	 viewBox="0 0 300 300" style="enable-background:new 0 0 300 300;" xml:space="preserve">
<style type="text/css">
	.st0{stroke:#000000;stroke-width:2.5322;stroke-miterlimit:10;}
</style>
<g>
	<path d="M231.4,233.1c-23.6-18.1-51.7-27.7-81.4-27.7c-29.7,0-57.8,9.6-81.4,27.7l-12.2-15.8c27.1-20.8,59.4-31.8,93.5-31.8
		c34.1,0,66.5,11,93.6,31.8L231.4,233.1z"/>
	<g>
		<rect x="96.3" y="66.9" transform="matrix(1 2.102359e-03 -2.102359e-03 1 0.2367 -0.219)" width="16" height="91.2"/>
		<g>
			<polygon points="104.1,181.7 90.6,148.3 104.2,156.3 117.8,148.4 			"/>
		</g>
	</g>
	<g>
		<rect x="142.4" y="66.9" transform="matrix(1 2.029864e-03 -2.029864e-03 1 0.2286 -0.3051)" width="16" height="91.2"/>
		<g>
			<polygon points="150.3,181.7 136.7,148.3 150.3,156.3 164,148.4 			"/>
		</g>
	</g>
	<g>
		<rect x="188.6" y="66.9" transform="matrix(1 2.102359e-03 -2.102359e-03 1 0.2369 -0.413)" width="16" height="91.2"/>
		<g>
			<polygon points="196.4,181.7 182.8,148.3 196.5,156.3 210.1,148.4 			"/>
		</g>
	</g>
</g>
</svg>
